<?xml version="1.0" encoding="UTF-8"?>
<svg enable-background="new 0 0 1177 619" version="1.1" viewBox="0 0 1177 619" xml:space="preserve" xmlns="http://www.w3.org/2000/svg"><path d="m700 267.34c38.498 0.002137 76.508-0.57159 114.49 0.17749 34.091 0.67233 68.512 21.523 78.652 54.997 7.5094 24.789 4.9467 48.517-10.526 69.89-6.7078 9.2658-16.268 15.546-25.816 21.646-1.6495 1.054-3.2208 2.2304-5.0225 3.4857 3.2634 5.6743 8.2819 7.3983 13.943 7.4078 42.165 0.071136 84.33 0.058319 126.49-0.037537 1.5594-0.00354 3.1162-1.1347 4.6742-1.7404-0.66699-1.5794-0.97778-3.4756-2.0568-4.6885-9.5022-10.681-19.751-20.76-28.582-31.961-10.492-13.308-15.751-29.119-16.158-46.048-0.69122-28.773 17.914-55.174 45.951-66.449 11.171-4.4926 22.663-6.7967 34.785-6.7495 44.998 0.17514 89.996 0.060852 134.99 0.095307 2.9324 0.002258 5.8644 0.34112 9.1871 0.5477 0 2.3703 1.22e-4 4.1769 1.22e-4 5.9836-1.22e-4 21.499 0.001221 42.998-0.001465 64.497-8.54e-4 7.6535-0.005615 7.6636-7.8684 7.6647-34.332 0.00473-68.664-0.023774-103 0.073761-1.9525 0.005554-3.902 1.0242-5.8529 1.5714 0.90332 1.8528 1.4448 4.0296 2.7675 5.5068 10.445 11.664 21.611 22.729 31.473 34.858 25.146 30.927 21.138 77.982-8.7766 104.3-12.578 11.065-27.484 17.563-44.555 17.586-69.164 0.093048-138.33 0.35339-207.49-0.18332-14.809-0.11493-27.97-6.9447-38.689-17.501-15.429-15.194-30.722-30.526-46.08-45.792-1.2601-1.2526-2.5723-2.4528-3.8602-3.6773-0.48322 0.10089-0.96643 0.20175-1.4496 0.30264 0 3.8586-0.010193 7.7172 0.00177 11.576 0.050781 16.324 0.13202 32.647 0.15124 48.971 0.007629 6.4932-0.69842 7.1529-7.1649 7.1545-27.666 0.006683-55.332-0.078674-82.996 0.083984-4.6408 0.027314-6.3569-1.1524-6.348-6.1625 0.13605-76.497 0.069397-152.99 0.060974-229.49-8.55e-4 -7.7974 0.031799-7.8055 7.6656-7.82 15.498-0.029388 30.996-0.049103 46.995-0.072754m183.59 54.01c-0.47436-0.50577-0.94873-1.0115-1.4126-1.4296 0 0 0.086914-0.016144 0.46228-0.72104-14.292-28.838-38.98-42.213-69.722-42.895-50.802-1.1267-101.65-0.30188-152.47-0.28628-6.2069 0.001923-6.2831 0.10898-6.2834 6.5762-0.003479 70.991-0.00531 141.98-0.002136 212.97 3.66e-4 7.6593 2.3203 9.1634 10.743 6.7284 20.655 0.043701 41.312-0.036591 61.965 0.22202 4.8925 0.061249 6.2592-1.6726 6.2196-6.3785-0.19214-22.821-0.098389-45.645-0.084106-68.467 0.001098-1.7013 0.1745-3.4025 0.33404-6.3118 2.2265 1.8416 3.542 2.7617 4.6599 3.8794 19.316 19.313 38.882 38.387 57.81 58.075 12.516 13.018 27.839 18.891 45.194 18.98 64.468 0.32977 128.94 0.41449 193.41-0.005371 26.657-0.17355 47.53-11.979 58.977-36.548 11.464-24.606 10.057-49.273-6.6201-71.248-10.022-13.206-22.088-24.872-33.374-37.103-3.6552-3.9613-5.0393-8.2237-2.9489-13.225 2.0664-4.9437 6.1073-6.4164 11.301-6.3876 23.822 0.13193 47.644 0.055909 71.467 0.052979 9.329-0.00116 18.658-0.038239 27.987 0.008575 3.0208 0.015168 5.2622-0.57059 5.2288-4.3039-0.1416-15.816-0.21472-31.632-0.011353-48.15 0.22839-9.3797 0.22839-9.3833-8.9116-9.3836-42.662-0.001281-85.324-0.079498-127.99 0.090851-5.9368 0.023712-12.032 0.62775-17.775 2.0705-25.985 6.5274-44.731 21.444-51.11 48.342-5.4034 22.784 2.2857 42.707 16.9 60.11 7.4848 8.9127 15.659 17.258 23.704 25.684 4.0117 4.2017 6.2649 8.6639 3.817 14.374-2.4356 5.6813-7.1577 7.2167-12.994 7.2042-40.495-0.086701-80.992-0.18308-121.49 0.036224-12.242 0.066315-22.925-2.9853-31.581-11.929 0 0 0.084106 0.062897-0.001709-0.58554-0.33032-0.26892-0.66058-0.53781-1.0198-1.5399-1.913-3.4393-1.2845-5.6115 2.607-7.3487 5.4434-2.4298 10.862-5.1204 15.811-8.4193 28.56-19.036 37.873-49.305 27.94-80.739-0.41748-0.50134-0.83496-1.0027-1.2718-1.3644 0 0 0.13977 0.017578 0.5329-0.63776z" fill="#B1ACAC"/>
<path d="m258 6.0702c40.495 0.087003 80.491 0.25662 120.49 0.25047 56.821-0.008737 113.64-0.15395 170.46-0.21771 5.314-0.005964 10.628 0.1745 15.942 0.22926 3.7269 0.038403 5.2006 1.7333 5.1796 5.5806-0.12524 22.832-0.17224 45.666 0.027405 68.496 0.041321 4.7191-2.5663 5.1561-5.98 5.1673-14.499 0.047531-28.998 0.075951-43.498 0.081032-16.333 0.005722-32.665-0.045174-48.998-0.022568-6.9969 0.009682-6.974 0.065758-6.9716 6.8641 0.01767 49.998 0.031159 99.996 0.018647 149.99-5.8e-4 2.3042-0.26202 4.6084-0.42664 7.3188-1.9501 0.091004-3.553 0.23015-5.1559 0.231-24.999 0.013458-49.999-0.10175-74.997 0.10722-4.7007 0.039292-6.2302-1.126-6.2124-6.0721 0.18286-50.664 0.059967-101.33 0.19699-151.99 0.012482-4.6226-1.0767-6.5576-6.0804-6.5344-34.498 0.15961-68.996 0.057029-103.49 0.14327-1.6361 0.004089-3.2697 0.99746-4.9045 1.5301 0.8577 1.4858 1.4847 3.18 2.6092 4.4248 9.8071 10.857 19.913 21.45 29.525 32.476 15.821 18.147 20.78 39.479 17.322 62.989-3.7712 25.636-17.396 44.286-40.509 55.822-9.4035 4.6935-19.479 7.151-30.13 7.1447-77.331-0.045746-154.66-0.016815-231.99-0.022949-1.6344-1.22e-4 -3.2688-0.13722-5.9032-0.25522 0-8.6322 0.024592-17.039-0.005223-25.445-0.058445-16.478 0.12022-32.964-0.33024-49.431-0.24474-8.9474 0.20926-9.9329 9.3519-9.9323 59.665 0.003906 119.33 0.038757 178.99-0.10893 3.205-0.007935 6.4062-1.5718 9.6091-2.4113-1.5659-2.7437-2.7295-5.8398-4.7692-8.1686-7.7908-8.8956-16.277-17.208-23.736-26.363-11.694-14.352-18.739-31.242-18.212-49.622 0.77756-27.143 14.23-47.737 38.088-60.9 12.343-6.8096 25.628-10.915 40.017-10.748 7.9887 0.092463 15.984-0.37922 24.476-0.60077m127.09 74.774c0.45703 2.7422 1.3078 5.4838 1.3125 8.2268 0.081757 47.759 0.059632 95.517 0.060273 143.28 1.52e-4 10.015 4.27e-4 10.015 11.341 9.4247 17.162 0.019744 34.324 0.055191 51.486 0.050796 6.1453-0.001587 6.5261-0.39844 6.5305-6.5341 0.016479-22.827 0.01532-45.655 0.015778-68.482 5.18e-4 -26.493 0.022522-52.986-0.034607-79.479-0.008881-4.1192 0.76306-7.8208 4.9292-9.4723 2.0815-0.82513 4.5351-0.9752 6.8214-0.98017 29.159-0.063484 58.318-0.11128 87.477 0.022278 4.4603 0.020424 6.1557-1.2434 6.0572-5.9816-0.31158-14.988-0.17493-29.986-0.10309-45.87-0.059265-10.552 1.5527-9.8828-9.8914-9.8826-105.29 0.002043-210.58-0.028217-315.86 0.080793-5.7736 0.005977-11.673 0.60524-17.297 1.8838-23.937 5.4421-42.012 18.529-50.463 42.198-8.4621 23.702-1.4978 45.021 13.137 64.03 7.483 9.7196 16.426 18.337 24.933 27.237 4.1792 4.3723 7.1777 8.8159 4.6898 15.081-2.519 6.3433-7.7522 7.3782-13.844 7.3709-58.808-0.070587-117.62-0.036988-176.42-0.025788-6.7926 0.001297-6.7979 0.022034-6.7992 7.0553-0.003187 17.159-0.001056 34.318-0.001047 51.478 6e-6 10.638 2.1e-5 10.638 11.645 10.276 70.442 0.003433 140.88 0.12788 211.33-0.048752 28.518-0.071503 51.223-11.368 63.04-38.239 11.699-26.602 8.248-52.167-10.856-74.635-9.5858-11.274-20.008-21.839-30.116-32.665-3.7289-3.9938-4.5055-8.5131-2.38-13.35 2.0536-4.6736 6.0932-6.1053 11.037-6.0957 36.303 0.07048 72.608-0.035286 108.91 0.17995 3.0457 0.018059 6.0799 1.9811 9.3203 3.8693z" fill="#B1AEAE"/>
<path d="m346.96 368.93c-10.017 32.992-19.983 65.583-29.951 98.172-3.9953 13.063-8.1297 26.086-11.904 39.212-1.076 3.7422-2.8832 4.8291-6.6558 4.8027-24.158-0.16898-48.317-0.17056-72.475-0.036011-3.3838 0.01886-5.0529-0.89743-6.0645-4.2472-8.0283-26.583-16.243-53.11-24.34-79.673-0.71356-2.341-0.9906-4.8151-1.4704-7.2274-0.66103-0.056733-1.3221-0.1135-1.9831-0.17026-9.4569 30.35-18.914 60.699-28.441 91.273-17.713 0-35.193-3.1e-5 -52.673-3.1e-5 -8.164 0-16.337-0.22684-24.488 0.10144-3.7388 0.15057-5.2304-1.2985-6.2508-4.6162-13.361-43.442-26.82-86.854-40.245-130.28-10.896-35.244-21.78-70.491-32.658-105.74-0.18849-0.61078-0.23525-1.2654-0.44318-2.4334 2.0927-0.26437 4.0068-0.71448 5.9214-0.7168 28.99-0.035278 57.981 0.079468 86.971-0.10107 4.3228-0.026917 6.0805 1.5119 7.2161 5.5078 5.1771 18.217 10.626 36.357 16.003 54.517 0.40582 1.3706 1.0105 2.6824 2.6209 4.1759 2.1125-7.4494 4.2383-14.895 6.3344-22.349 3.5189-12.514 7.1277-25.004 10.451-37.569 0.83618-3.1618 2.3213-4.2853 5.4884-4.2749 30.656 0.10068 61.313 0.14133 91.969 0.089813 3.4846-0.005829 5.1699 1.0716 6.2401 4.6447 5.4344 18.145 11.205 36.19 16.888 54.261 0.53171 1.6907 1.2724 3.3157 2.9751 5.0621 1.6469-5.2173 3.36-10.415 4.928-15.656 4.3851-14.657 8.8049-29.305 12.983-44.021 0.88846-3.1294 2.3968-4.2906 5.5316-4.2854 27.658 0.046478 55.315 2.13e-4 82.973 0.025421 1.4326 0.001312 2.8647 0.40292 5.155 0.74707-10.273 33.752-20.415 67.077-30.607 100.8m-248.87 133.51c17.638-0.003846 35.279-0.16168 52.914 0.093994 4.5531 0.06604 6.6754-1.2024 8.0657-5.7362 10.131-33.037 20.554-65.984 30.912-98.951 0.51997-1.6549 1.295-3.2296 2.4207-5.9946 1.4742 2.0252 2.2651 3.1117 3.169 5.0099 10.285 34.01 20.592 68.013 30.809 102.04 0.79541 2.6494 2.0107 3.9948 4.8793 3.6105 1.6416-0.21988 3.3165-0.19086 5.8665-0.075531 17.651-0.002289 35.306-0.20346 52.951 0.1163 5.1796 0.093841 7.4527-1.3922 8.9954-6.526 16.653-55.419 33.617-110.74 50.433-166.11 4.3926-14.464 8.564-28.995 13.342-44.057 0.88956-2.9514 1.7791-5.9028 2.7781-9.2172-1.8374-0.28619-2.9371-0.60535-4.0371-0.60702-22.125-0.03357-44.251 0.033081-66.376-0.108-3.1028-0.019775-3.78 1.4301-4.5171 3.9525-7.4428 25.47-14.986 50.911-22.623 76.323-0.51688 1.7198-2.0211 3.1429-3.4479 4.1171-0.91431-2.2852-1.9864-4.521-2.7184-6.8631-7.03-22.493-14.003-45.004-20.971-68.267-0.29565-0.95084-0.74734-1.8835-0.86079-2.8556-0.58206-4.9873-3.0242-6.5532-8.2595-6.4833-25.302 0.33792-50.61 0.15854-75.916 0.16248-1.8031 2.75e-4 -3.6062 3.1e-5 -5.3929 3.1e-5 -0.55403 1.6623-1.0213 2.8971-1.3792 4.1629-7.0482 24.925-14.057 49.862-21.175 74.767-0.54491 1.9065-1.8483 3.5961-3.5603 5.24-0.79623-1.767-1.8019-3.4709-2.3569-5.3107-6.9252-22.96-13.785-45.94-20.751-69.718-0.87566-2.9887-1.7513-5.9774-2.553-8.7135h-80.135c0.69682 2.6007 1.1762 4.6604 1.7991 6.6756 21.866 70.749 43.717 141.5 65.664 212.23 2.5344 8.1671 0.36882 7.0441 9.6747 7.1154 0.48859 0.003754 0.97848-0.16092 2.3568-0.019256z" fill="#B0ADAD"/>
<path d="m1173.2 164.82c0.60327 1.5937 1.7252 3.1852 1.7322 4.7816 0.11035 25.33 0.015747 50.662 0.14758 75.992 0.018677 3.5941-1.2477 4.5132-4.6462 4.5065-48.661-0.095321-97.331 0.39931-145.98-0.36816-15.774-0.24881-30.4-6.3879-41.984-17.885-15.487-15.37-30.816-30.899-46.223-46.35-1.2361-1.2397-2.5515-2.4003-4.9622-4.658v68.94c-2.4905 0.11189-4.2744 0.26092-6.0583 0.26187-27.997 0.014771-55.995-0.077927-83.991 0.098618-4.5967 0.028991-6.353-0.97972-6.343-6.0333 0.15277-76.992 0.14667-153.98-0.010864-230.98-0.010437-5.0908 1.7731-6.7671 6.5507-6.7616 53.827 0.06143 107.67-0.72987 161.48 0.34346 31.622 0.63079 57.752 13.878 74.446 42.111 7.9155 13.386 9.6654 28.129 8.9465 43.502-1.3698 29.292-17.739 48.2-41.714 62.19-1.0518 0.61366-2.5037 2.0579-2.3588 2.8608 0.23303 1.2923 1.4126 2.9877 2.5974 3.4319 4.3503 1.6309 8.8678 2.8166 14.204 4.178 6.3718 0.006409 11.862 0.010819 17.352 0.001694 32.273-0.05368 64.546-0.11052 96.819-0.16631m-123.26 6.5839c-1.0376-1.1818-1.9714-2.4786-3.1318-3.5242-3.8091-3.4325-7.7004-6.7738-12.558-11.023 4.9397-3.9063 8.804-7.0552 12.778-10.059 1.5699-1.1865 3.4396-1.9683 5.0732-3.0806 2.1282-1.449 2.1936-2.8273-0.083619-4.4448 14.213-12.422 24.477-27.225 25.363-46.637 0.3794-8.3169-1.4507-16.735-2.1467-25.954-0.23047-0.96735-0.38953-1.9584-0.7019-2.8986-9.9395-29.914-41.018-48.126-71.976-48.467-50.823-0.56002-101.66-0.10239-152.49-0.24907-4.8827-0.014092-6.1972 1.5861-6.1754 6.3611 0.17694 38.663 0.10236 77.327 0.10394 115.99 0.001343 32.997 0.074036 65.995-0.086486 98.992-0.02063 4.2484 1.4341 5.8251 5.4642 5.4568 1.1588-0.10588 2.3269-0.10788 4.4361-0.024002 20.824 2.75e-4 41.648 0.008301 62.472-0.003967 6.1328-0.003616 6.5485-0.40881 6.5523-6.5381 0.01416-22.49-0.003906-44.98 0.011658-67.47 0.001343-1.9128 0.16241-3.8254 0.30817-7.035 2.3875 1.9347 3.9471 2.983 5.2506 4.2871 18.841 18.85 37.98 37.418 56.35 56.717 13.38 14.057 29.82 19.793 48.411 19.936 42.312 0.32527 84.628 0.11382 126.94 0.06636 1.9507-0.002197 3.901-0.53117 6.6366-0.92036 0.74756-1.2942 2.1378-2.5841 2.1465-3.8831 0.1344-20.481 0.074707-40.963 0.10315-61.444 0.005493-3.9628-1.7318-5.6081-5.7893-5.5983-35.302 0.085206-70.603 0.012375-105.9 0.16072-1.8285 0.007691-3.6503 1.6004-6.1261 2.5276-0.39282-0.17305-0.78577-0.34608-1.2374-1.2411z" fill="#B2AFAF"/>
<path d="m569.61 326.4c16.761 53.848 33.345 107.33 49.907 160.83 1.9493 6.2957 3.5373 12.716 5.767 18.907 1.2415 3.4475 0.48096 4.6528-2.9843 4.6621-26.995 0.07254-53.99 0.21533-80.984 0.075439-1.4618-0.007568-3.6961-2.0828-4.2368-3.6545-3.053-8.8745-5.7829-17.864-8.4364-26.87-0.91962-3.1211-2.2834-4.4686-5.8717-4.4415-24.831 0.18796-49.665 0.18066-74.497 0.004914-3.5056-0.024781-5.0353 1.1506-5.9727 4.3424-2.5496 8.6821-5.4378 17.265-7.9737 25.951-1.0417 3.5681-2.8118 4.9501-6.7154 4.924-26.332-0.17657-52.665-0.077514-78.997-0.11957-1.7425-0.002777-3.4843-0.4328-5.8284-0.74405 4.5219-15.018 8.8561-29.451 13.213-43.876 19.332-64.012 38.737-128 57.885-192.07 1.6207-5.4226 4.0266-7.1394 9.6553-7.1048 40.331 0.24783 80.664 0.20718 121 0.041229 4.9554-0.020385 7.2949 1.4547 8.7336 6.4045 5.0989 17.543 10.729 34.932 16.342 52.738m-15.716 175.88c18.138 0.046173 36.276 0.11133 54.414 0.12833 6.4247 0.006012 6.6188-0.29257 4.6785-6.5486-12.455-40.159-24.899-80.32-37.392-120.47-9.2798-29.821-18.628-59.62-28.025-90.247-3.2846-10.992-2.1002-9.0981-11.964-9.1167-35.493-0.067016-70.986 0.058747-106.48-0.12274-4.7753-0.024414-6.9333 1.2952-8.3735 6.1072-20.431 68.269-41.104 136.47-61.712 204.68-1.4757 4.8849-2.8985 9.786-4.52 15.268 4.6606 0 8.5615 0 13.36 0.30942 18.145 0.055877 36.291 0.06372 54.435 0.21494 3.0258 0.025238 4.4475-1.1628 5.2806-4.005 2.524-8.6107 5.4813-17.099 7.8408-25.751 1.1686-4.2855 3.2426-5.7109 7.7013-5.6808 28.302 0.19104 56.606 0.074371 84.91 0.12833 2.1161 0.004028 4.2311 0.54715 6.1689 1.6792 2.9028 9.5098 5.8091 19.019 8.7073 28.53 1.9161 6.2885 3.54 7.0334 10.969 4.8923z" fill="#B1AEAE"/>
<path d="m538.98 237.95c13.346-44.373 26.657-88.34 39.964-132.31 9.3456-30.878 18.807-61.721 27.907-92.671 1.4208-4.8321 3.5382-6.6633 8.5354-6.6461 40.818 0.14059 81.637 0.11078 122.46 0.039692 4.0617-0.007074 6.662 0.83184 8.0364 5.3328 14.614 47.861 29.424 95.663 44.202 143.47 9.4283 30.503 18.894 60.995 28.337 91.493 0.22906 0.73994 0.38068 1.5039 0.72968 2.903-1.9799 0.179-3.5453 0.44208-5.1109 0.44398-26.324 0.032135-52.648-0.009399-78.971 0.09372-3.0765 0.012039-4.72-0.70345-5.655-3.9574-2.5887-9.009-5.7083-17.864-8.4156-26.841-0.96594-3.2027-2.5884-4.3918-6.0282-4.3721-24.657 0.14092-49.315 0.15134-73.972-0.009247-3.545-0.023087-5.0212 1.3864-5.9427 4.4849-2.628 8.8357-5.4114 17.625-8.1479 26.428-0.75342 2.4237-1.4708 4.3207-4.9307 4.2987-27.822-0.1768-55.646-0.10446-83.469-0.12253-0.64648-4.27e-4 -1.2928-0.16759-2.8315-0.38037 1.1369-3.9215 2.2035-7.6007 3.3071-11.685m205.87 3.955c18.634-0.020676 37.268-0.032044 55.902-0.067017 6.7337-0.012634 7.0272-0.3974 5.0449-6.7803-11.533-37.135-23.076-74.266-34.629-111.39-10.261-32.977-20.538-65.948-30.974-99.675-2.3642-8.8249-2.3642-8.8258-11.16-8.8251-35.959 0.002971-71.919 0.065579-107.88-0.069864-4.1738-0.015722-6.1047 1.2154-7.3583 5.387-21.118 70.272-42.447 140.48-63.629 210.73-3.0827 10.224-6.1229 11.224 9.624 10.58 18.147 0.017273 36.296-0.07042 54.441 0.1373 3.7855 0.043335 5.263-1.5131 6.2376-4.8457 2.5198-8.6164 5.4529-17.113 7.925-25.742 1.0325-3.6038 2.7383-5.0277 6.6274-5.007 28.636 0.15233 57.274 0.055313 85.91 0.15833 2.0317 0.007308 4.0598 0.98213 6.053 2.3082 2.7591 9.003 5.7911 17.935 8.169 27.037 1.3036 4.9898 3.7527 7.0148 9.6921 6.0655z" fill="#B1AEAE"/>
<path d="m332.85 580.12c-8.85e-4 -4.2742-8.85e-4 -8.0674-8.85e-4 -12.176 7.3945 0 14.518-0.14191 21.633 0.041687 6.5482 0.16888 10.972 3.1238 12.572 7.9093 1.8293 5.4715 0.068908 10.086-5.5571 14.568 4.4307 2.9559 8.8848 6.0119 8.6634 12.152-0.26395 7.3197-4.946 11.88-13.034 12.29-7.1431 0.36182-14.32 4.89e-4 -21.479 0.13214-3.3954 0.062439-3.7458-1.8759-3.6613-4.5098 0.32007-9.9744 0.58093-19.951 0.8631-30.407m26.287 30.538c4.3839-1.6526 5.9355-5.1888 5.6511-9.4501-0.22617-3.3886-5.189-6.937-9.2476-7.1981-3.3003-0.21234-6.6036-0.40314-9.8957-0.70996-8.0233-0.74768-8.8009 0.043823-8.0353 8.2764 0.12219 1.3138 0.29901 2.6951 0.035553 3.9586-0.87888 4.2147 1.3341 5.3157 4.931 5.2842 5.2698-0.046265 10.54-0.043457 16.561-0.16101m-7.9344-21.471c2.6236-0.80988 6.0346-0.88348 7.6626-2.6245 1.8475-1.9756 2.8672-5.4799 2.7366-8.2483-0.070679-1.4975-3.1168-3.6874-5.1216-4.0992-5.2693-1.0821-10.695-1.557-16.079-1.7923-1.0617-0.046326-3.051 1.9621-3.2017 3.1953-1.5517 12.701-1.229 12.987 11.591 13.368 0.49747 0.014771 0.99371 0.069092 2.4121 0.20056z" fill="#B1AAAA"/>
<path d="m662.85 611.28c-4.984-6.244-9.7462-12.197-14.979-18.738-3.3161 3.1367-7.6949 5.6057-9.3165 9.2888-1.5812 3.5915-0.34369 8.424-0.34369 12.957h-6.148c0-10.081 0.084168-19.793-0.043701-29.502-0.047302-3.5982-0.46912-7.206-0.93829-10.781-0.75659-5.7662 0.40332-6.9118 6.9309-5.9844v26.81c5.184-5.1804 9.3296-9.2552 13.397-13.407 4.1656-4.2515 8.0743-8.778 12.484-12.753 1.3682-1.2331 4.006-1.0575 6.0626-1.5269 0.18664 0.39459 0.37323 0.78912 0.55988 1.1837-6.1368 6.4393-12.274 12.879-18.697 19.619 6.7097 8.6343 13.315 17.134 20.061 25.815-4.4814 1.829-6.8676 0.14844-9.0293-2.9831z" fill="#ADAAAA"/>
<path d="m834.19 615.01c-7.721-0.00415-8.2296-0.52771-8.1537-8.0694 0.11676-11.613 0.12262-23.231 0.53632-34.834 0.051209-1.4385 2.2412-3.939 3.548-4.0118 9.2914-0.51813 18.611-0.61053 27.921-0.58881 0.94958 0.002258 1.8954 1.6522 2.8429 2.5374-1.1888 0.87238-2.3498 2.4521-3.5711 2.5001-6.968 0.27454-13.95 0.16986-20.928 0.23028-1.31 0.011353-2.6185 0.18671-4.5372 0.33276v15.817c7.3018 0 14.248-0.16528 21.175 0.12012 1.6613 0.068481 3.2609 1.6352 4.8889 2.5128-1.6635 0.81818-3.3235 2.3224-4.9912 2.3311-5.95 0.030761-11.903-0.43042-17.854-0.73859-2.9017-0.15027-4.4365 1.0591-4.2385 4.0787 0.076111 1.1607 0.27649 2.3151 0.31537 3.476 0.34241 10.217 0.33533 10.212 10.834 10.192 5.979-0.011596 11.958-0.002075 18.424-0.002075 1.0854 2.2864 1.0992 4.1249-2.8116 4.1025-7.6421-0.04364-15.285 0.003174-23.401 0.014221z" fill="#AFA6A6"/>
<path d="m925.49 569.42c6.2445 1.1223 9.4697 5.1915 10.623 10.418 1.4288 6.4766-2.2048 11.18-11.665 16.717 2.6499 3.6219 5.4754 7.1059 7.8204 10.888 0.85681 1.3817 0.57245 3.471 0.80872 5.2375-1.5798-0.74792-3.5627-1.1254-4.6584-2.318-2.5712-2.7986-4.7188-5.9866-7.0361-9.0182-3.5783-4.6814-10.527-6.8649-15.634-4.6432-0.84619 0.36816-1.5849 1.9619-1.6282 3.0198-0.14966 3.6553 0.30847 7.3524-0.061218 10.973-0.13586 1.3295-1.9334 2.4893-2.9728 3.7265-0.69281-1.3173-1.9694-2.6263-1.9879-3.953-0.18121-12.955-0.11066-25.913-0.22003-38.869-0.020813-2.472 0.66095-3.8015 3.3499-3.6377 7.6268 0.46466 15.257 0.87579 23.262 1.4602m0.91144 4.3459c-7.3384-0.74286-14.677-1.4857-23.283-2.3569 0 6.4764 0.10901 11.611-0.042236 16.737-0.085632 2.9015 1.1893 3.7698 3.8815 3.7237 4.6542-0.080017 9.3461 0.42297 13.959-0.003357 4.4586-0.41211 8.5263-2.4717 9.7382-7.2108 1.0193-3.9861 1.8572-8.4434-4.2535-10.89z" fill="#B4A9A9"/>
<path d="m1046.7 614.37c-6.9366 0.1792-13.41 0.34265-19.876 0.65045-2.6655 0.12689-3.9376-0.62946-3.9155-3.5935 0.1051-14.135 0.04712-28.272 0.04712-43.013h32.81c0.10193 1.0578 0.24744 2.5677 0.38708 4.0169-8.3241 0-16.272 0.25598-24.191-0.10504-4.12-0.18787-5.9777 0.41815-5.9727 5.1724 0.011963 11.416-0.23035 11.414 11.178 11.406 3.8263-0.002869 7.6595 0.14948 11.477-0.032898 3.3818-0.16156 4.0513 1.3353 3.0397 4.8608h-24.448c0 5.2278-0.22046 9.8258 0.19055 14.367 0.079834 0.88214 2.598 2.1483 4.0292 2.2004 6.7898 0.24731 13.598-0.009033 20.387 0.25507 1.6534 0.06427 3.2567 1.4183 4.8831 2.1794-1.7074 0.78473-3.35 1.8819-5.1431 2.2527-1.3735 0.28418-2.9369-0.34894-4.8822-0.61639z" fill="#B1A7A7"/>
<path d="m590.37 570.54c1.7846 1.2436 3.2523 2.2881 5.0272 3.5511-1.1941 1.5492-2.1488 2.7879-3.1104 4.0355-10.095-8.177-21.585-8.6356-28.947 0.29846-6.5051 7.8943-6.7264 20.301 1.5616 27.95 7.2604 6.701 18.006 6.152 27.64-1.9558 0.91028 1.0816 1.821 2.1636 2.9958 3.5595-6.09 6.3519-13.446 8.8911-21.726 7.7947-8.7728-1.1617-15.52-5.6271-18.821-14.338-3.2903-8.6817-2.814-17.137 2.6869-24.618 7.9693-10.837 19.191-12.847 32.692-6.2786z" fill="#B1ABAB"/>
<path d="m238.78 615.06c-7.4574-0.086303-14.443-0.18518-21.428-0.27203-3.8123-0.047364-5.0979-1.0749-4.8719-5.6826 0.56877-11.595 0.14224-23.258-0.33295-34.876-0.24413-5.9683-0.41365-6.2636 5.5494-6.2552 8.1545 0.011474 16.312-0.067871 24.46 0.17291 1.3698 0.040467 2.6975 1.5013 4.0447 2.3059-1.3364 0.82593-2.6545 2.3301-4.0122 2.3667-8.268 0.22235-16.545 0.11102-24.91 0.11102v16.648h25.032c0.049316 0.71124 0.098633 1.4224 0.14795 2.1337-3.5443 3.5971-8.3785 0.88989-12.507 1.3011-4.5605 0.45441-9.2011 0.10376-14.451 0.10376 0.25587 4.9435 0.16038 9.5744 0.94215 14.052 0.21966 1.2582 2.9866 2.883 4.6361 2.9433 8.2445 0.30109 16.506 0.13776 25.521 0.13776-0.98926 6.0512-4.7052 4.4441-7.8211 4.8103z" fill="#B2A8A8"/>
<path d="m768.39 615.93c-4.0704-1.6035-7.838-2.9496-11.278-4.8794-1.1103-0.62292-1.3599-2.7801-2.0033-4.2354 1.4709 0.023437 3.337-0.5282 4.3472 0.16589 5.558 3.8185 11.336 5.1205 17.912 3.0905 3.0222-0.93304 5.7424-2.4655 5.2412-5.6146-0.44293-2.7828-1.9498-6.2808-4.1323-7.6932-3.212-2.0787-7.3998-2.7515-11.247-3.7255-8.3689-2.1185-12.354-5.9235-12.31-12.092 0.058655-8.1288 5.2361-13.908 13.736-13.769 4.9683 0.081116 9.957 1.9821 14.812 3.4694 1.0392 0.31836 1.5422 2.3868 2.2922 3.6491-1.5466 0.30872-3.1909 1.1133-4.6212 0.83142-3.9968-0.78766-7.8545-2.5847-11.861-2.9449-5.1718-0.46509-8.3817 2.3741-9.2311 6.4877-1.1434 5.5372 2.5234 7.4133 6.5969 8.8478 4.2156 1.4846 8.6302 2.4263 12.794 4.0312 5.9508 2.2939 8.8407 7.2271 8.3259 13.348-0.46289 5.5032-3.8165 8.8435-10.564 10.159-2.7477 0.53552-5.5839 0.61694-8.8096 0.87439z" fill="#B1ABAB"/>
<path d="m1108.3 593.75c-2.5947-0.83423-4.8376-1.4398-7.014-2.2291-5.2305-1.8974-8.3329-6.2845-8.1267-11.33 0.20862-5.1091 4.5299-10.16 9.2856-11.849 7.022-2.4932 13.436-1.2001 19.501 2.4756 1.0784 0.65356 1.325 2.6796 1.7427 3.6019-5.8245-1.2317-10.724-3.0163-15.623-3.0132-2.7832 0.001709-6.2145 2.3683-8.1975 4.6674-3.1315 3.6306-0.88281 8.9768 3.9077 10.684 4.6775 1.6674 9.5082 2.9587 14.065 4.9008 10.899 4.6451 12.064 11.135 3.6992 19.244-7.2422 7.0209-20.857 6.7242-27.75-0.74206-0.677-0.73334-0.47351-2.2794-0.67871-3.4483 1.6213-0.010986 3.655-0.65985 4.7933 0.076233 5.2496 3.3945 10.667 5.2949 16.938 3.6566 5.8236-1.5215 8.1259-5.2247 5.8857-10.73-0.78955-1.9407-3.1768-3.5922-5.2208-4.5596-2.0212-0.9566-4.5299-0.88294-7.207-1.4063z" fill="#B4A7A7"/>
<path d="m508.54 602.05c-7.5083-0.00238-14.603-0.091797-21.686 0.14899-1.0929 0.037171-2.4528 1.3923-3.1328 2.4844-1.4014 2.2504-2.1602 4.9282-3.7017 7.0544-1.0172 1.403-2.9377 2.1508-4.4539 3.192-0.40182-0.3927-0.80365-0.78546-1.2055-1.1782 0.43658-1.3295 0.73264-2.7263 1.3314-3.9781 6.1841-12.93 12.353-25.867 18.672-38.732 2.1785-4.4355 4.0369-4.5545 6.2833-0.20496 3.0027 5.8138 5.3933 11.94 8.1697 17.875 3.3696 7.2029 6.9438 14.311 10.234 21.549 0.54663 1.2024 0.095947 2.8582 0.10614 4.3044-1.3486-0.70984-3.176-1.0832-3.9557-2.1927-2.3032-3.2777-4.1921-6.8464-6.6606-10.322m-13.388-25.208c-3.3128 7.0774-6.6256 14.155-10.239 21.875h24.125c-3.8943-8.3148-7.6417-16.316-11.615-24.8-0.90594 1.1047-1.4082 1.7173-2.2706 2.9244z" fill="#B6A6A6"/>
<path d="m140.03 589.78c7.9454 0.049072 15.894 0.21643 23.832-6.11e-4 1.0076-0.027526 2.7921-2.0665 2.7928-3.1746 0.002991-4.5779-0.59451-9.1533-0.85246-13.736-0.07341-1.3042 0.041657-2.7169 0.51787-3.8997 0.16087-0.39954 2.0972-0.66351 2.5339-0.25452 0.96577 0.90424 2.0046 2.2339 2.1036 3.4633 0.26618 3.3041 0.029038 6.6468 0.03772 9.9741 0.022522 8.6283 0.19907 17.259 0.011749 25.883-0.044174 2.033-1.2809 4.0402-1.969 6.0593-0.68768-1.9283-1.8555-3.829-1.9687-5.7905-0.28505-4.9385-0.09433-9.9044-0.09433-15.081h-28.933c0.22082 4.8014 0.438 9.3936 0.63988 13.986 0.065735 1.4963 0.36205 3.0542 0.048065 4.4721-0.24126 1.0895-1.2741 2.0037-1.955 2.9959-0.64427-0.9729-1.7701-1.9068-1.8525-2.9252-0.44267-5.4673-0.76198-10.953-0.86562-16.437-0.14781-7.8213-0.098419-15.647-0.073669-23.471 0.006653-2.1002-0.49065-4.9531 3.6784-2.6332 0.41366 1.3168 0.47148 2.0739 0.45422 3.2854-0.017792 4.45 0.039505 8.4454 0.029602 12.817 0.58336 1.7398 1.2339 3.1035 1.8844 4.4671z" fill="#B6A6A6"/>
<path d="m413.82 574.19c0.028259 12.079 0.028259 23.683 0.028259 35.77 7.6726 0 14.786 0.097046 21.896-0.042236 3.3872-0.066345 4.4753 1.3319 3.7619 4.7907h-31.148v-46.531h5.1326c0.10675 1.9626 0.20401 3.7505 0.3295 6.0125z" fill="#AEACAC"/>
<path d="m74.979 602.98c0.002159-10.122 0.002159-19.747 0.002159-30.27-4.1663 0-8.063 0.033569-11.959-0.009583-3.8044-0.042114-3.8041-0.076477-3.7785-4.4587h36.199c0.31154 0.36462 0.62308 0.72931 0.93462 1.0939-1.0592 0.91968-2.0298 2.4688-3.1955 2.6332-2.771 0.39062-5.6398 0.23492-8.4592 0.097229-3.3124-0.1618-4.8101 1.007-4.7504 4.5752 0.17445 10.435 0.085465 20.874 0.098564 31.312 0.002686 2.1391 3.89e-4 4.2782 3.89e-4 6.7665-1.6623 0.12427-3.0567 0.22846-5.0946 0.38074 0-4.0869 0-7.8557 0.002159-12.121z" fill="#B1ACAC"/>
<path d="m1136.8 509.77c-6.1797 5.8741-13.755 6.7954-21.333 2.8054-5.7949-3.0512-8.6534-9.6765-7.5209-17.431 1.0369-7.1002 6.4167-12.567 13.741-13.963 5.6173-1.0705 13.349 2.2239 16.552 7.0526 4.3651 6.5808 3.9556 14.07-1.4398 21.536m-1.894-4.0038c3.7867-5.5887 3.7712-10.656-0.048584-15.916-3.3326-4.5892-8.434-5.9424-15.596-3.8419-6.1752 3.136-8.0135 6.8044-7.356 14.677 0.38928 4.6595 3.998 8.8813 8.7722 10.262 6.0443 1.7481 9.4708 0.5333 14.228-5.1812z" fill="#B1AAAA"/>
<path d="m978.77 568.24c1.0149 1.3586 2.1306 2.5732 2.1429 3.7987 0.13153 13.12 0.15021 26.242-0.013672 39.36-0.014466 1.1544-1.537 2.2899-2.3591 3.4342-0.84692-1.0913-2.4166-2.1733-2.4308-3.2753-0.17084-13.323-0.17066-26.651-0.010132-39.974 0.014099-1.1697 1.4719-2.3221 2.6707-3.3436z" fill="#B2AFAF"/>
<path d="m1172.8 164.57c-31.923 0.306-64.196 0.36284-96.469 0.41652-5.4901 0.009125-10.98 0.004715-16.935-0.048508 0.96057-0.34718 2.3855-0.89264 3.8113-0.89436 35.592-0.043121 71.184-0.030945 106.78-0.012299 0.8219 4.28e-4 1.6437 0.18811 2.8162 0.53865z" fill="#AC5B5B"/>

<path d="m1166.1 286.09c0.098144 15.816 0.17126 31.633 0.31287 47.448 0.033447 3.7333-2.208 4.319-5.2288 4.3039-9.3287-0.046814-18.658-0.009735-27.987-0.008575-23.822 0.00293-47.645 0.078949-71.467-0.052979-5.1935-0.028778-9.2344 1.4439-11.301 6.3876-2.0905 5.0012-0.7063 9.2636 2.9489 13.225 11.286 12.23 23.352 23.896 33.374 37.103 16.677 21.975 18.084 46.643 6.6201 71.248-11.447 24.57-32.32 36.375-58.977 36.548-64.467 0.41986-128.94 0.33514-193.41 0.005371-17.355-0.088775-32.678-5.9624-45.194-18.98-18.928-19.687-38.493-38.762-57.81-58.075-1.1179-1.1177-2.4334-2.0378-4.6599-3.8794-0.15955 2.9092-0.33295 4.6104-0.33404 6.3118-0.014283 22.823-0.10803 45.646 0.084106 68.467 0.039612 4.7059-1.3271 6.4398-6.2196 6.3785-20.653-0.25861-41.309-0.17831-62.436-0.83975-0.47949-70.045-0.48901-139.47-0.49359-208.9-4.27e-4 -6.7504 0.013367-6.7592 6.8936-6.7596 49.448-0.002655 98.9-0.37299 148.34 0.16583 22.439 0.24457 41.719 9.0367 56.704 26.243 2.1525 2.4717 4.2606 4.9819 6.3892 7.4743 0 0-0.086914 0.016144-0.10803 0.29285 0.33276 0.7872 0.68671 1.2977 1.0406 1.8082 0 0-0.13977-0.017578-0.07196 0.25467 0.52661 0.77591 0.98535 1.2796 1.4441 1.7833 9.6929 30.744 0.37939 61.012-28.18 80.048-4.9492 3.2988-10.367 5.9894-15.811 8.4193-3.8915 1.7372-4.52 3.9094-2.3788 7.9315 0.44464 0.92374 0.66101 1.2646 0.87738 1.6055 0 0-0.084106-0.062897-0.11322 0.27777 1.2209 2.8142 2.0604 5.6307 3.7912 7.7026 7.9539 9.5211 18.708 12.927 30.676 12.949 41.136 0.077514 82.272-0.02475 123.41 0.07605 7.7333 0.01892 13.804-2.4783 16.926-9.831 3.1797-7.4873 0.14813-13.494-5.1102-18.919-7.0649-7.2888-13.981-14.723-20.915-22.137-11.937-12.764-19.169-27.913-19.54-45.323-0.68335-32.072 23.589-58.953 60.535-60.397 45.728-1.7876 91.58-0.38364 137.38-0.35852m-356.25 46.693c-0.28216 0.063019-0.56427 0.12601-1.5272 0.040802-4.7658-1.7063-9.4866-4.7224-14.305-4.8876-18.913-0.64853-37.857-0.3945-56.789-0.48593-3.1617-0.015259-4.3134 1.5027-4.287 4.6565 0.10938 13.122-0.026062 26.246 0.13098 39.367 0.018555 1.5518 1.2844 3.0885 1.8638 5.4389 0.35913 6.5898 1.9464 8.177 8.4865 8.187 18.966 0.028931 37.931 0.028656 56.897 0.003693 11.598-0.01529 21.35-6.8185 25.337-17.591 3.9064-10.554 0.87451-23.652-7.5356-30.584-2.265-1.8669-5.48-2.581-8.1902-3.8461 0 0 0.017701 0.070037-0.0802-0.29932z" fill="#404040"/>
<path d="m1166.3 285.74c-45.949 0.32544-91.802-1.0785-137.53 0.70908-36.946 1.4443-61.218 28.325-60.535 60.397 0.37097 17.41 7.6033 32.559 19.54 45.323 6.9341 7.4145 13.85 14.849 20.915 22.137 5.2583 5.4251 8.2899 11.432 5.1102 18.919-3.1226 7.3527-9.1931 9.8499-16.926 9.831-41.136-0.1008-82.272 0.001464-123.41-0.07605-11.967-0.022522-22.722-3.4281-30.676-12.949-1.7308-2.0719-2.5703-4.8884-3.7599-7.7448 8.6542 8.6456 19.337 11.697 31.579 11.631 40.494-0.2193 80.991-0.12292 121.49-0.036224 5.8358 0.012481 10.558-1.5229 12.994-7.2042 2.4479-5.7102 0.1947-10.172-3.817-14.374-8.0455-8.4266-16.219-16.772-23.704-25.684-14.614-17.402-22.303-37.326-16.9-60.11 6.3792-26.898 25.125-41.815 51.11-48.342 5.7435-1.4428 11.838-2.0468 17.775-2.0705 42.661-0.17035 85.323-0.092132 127.99-0.090851 9.14 2.75e-4 9.14 0.003907 8.7609 9.7342z" fill="#020202"/>
<path d="m882.45 319.56c-2.3163-2.14-4.4244-4.6502-6.5768-7.1219-14.984-17.207-34.265-25.999-56.704-26.243-49.442-0.53882-98.894-0.16849-148.34-0.16583-6.8802 3.66e-4 -6.894 0.009155-6.8936 6.7596 0.004578 69.427 0.014099 138.85 0.044861 208.75-7.5025 3.2022-9.8224 1.6981-9.8228-5.9612-0.003174-70.991-0.001343-141.98 0.002136-212.97 3.05e-4 -6.4673 0.076538-6.5743 6.2834-6.5762 50.827-0.015595 101.67-0.84042 152.47 0.28628 30.742 0.68179 55.43 14.057 69.535 43.247z" fill="#040404"/>
<path d="m884.45 323.7c-0.33868-0.15811-0.79742-0.6618-1.3143-1.5075 0.35931 0.1593 0.77679 0.66061 1.3143 1.5075z" fill="#040404"/>
<path d="m883.39 321.68c-0.55048-0.18283-0.90442-0.69333-1.2424-1.5244 0.49023 0.18524 0.9646 0.69101 1.2424 1.5244z" fill="#040404"/>
<path d="m839.03 421.73c-0.17346-0.016663-0.38983-0.35751-0.82001-0.91467 0.11652 0.052643 0.44678 0.32153 0.82001 0.91467z" fill="#020202"/>
<path d="m560.88 25.934c0.036804 14.994-0.099853 29.992 0.21173 44.98 0.098511 4.7382-1.5969 6.002-6.0572 5.9816-29.159-0.13355-58.318-0.085762-87.477-0.022278-2.2863 0.004974-4.7398 0.15504-6.8214 0.98017-4.1661 1.6515-4.938 5.3531-4.9292 9.4723 0.057129 26.493 0.035125 52.986 0.034607 79.479-4.58e-4 22.827 7.01e-4 45.655-0.015778 68.482-0.004425 6.1357-0.38528 6.5325-6.5305 6.5341-17.162 0.004395-34.324-0.031052-51.951-0.56021-0.43552-48.836-0.40521-97.163-0.37918-145.49 7.02e-4 -1.3326 0.042267-2.6734-0.08258-3.9965-0.63678-6.7472-5.0016-11.006-11.988-11.761-3.0395-1.0594-6.0737-3.0224-9.1194-3.0405-36.302-0.21524-72.607-0.10947-108.91-0.17995-4.9441-0.009598-8.9837 1.4222-11.037 6.0957-2.1255 4.8372-1.349 9.3565 2.38 13.35 10.108 10.826 20.53 21.391 30.116 32.665 19.104 22.468 22.555 48.033 10.856 74.635-11.817 26.871-34.522 38.168-63.04 38.239-70.442 0.17664-140.88 0.052185-211.76-0.46379-0.37443-17.336-0.32122-34.16-0.26295-50.983 0.024889-7.1867 0.029679-7.2025 7.1172-7.2031 56.641-0.004624 113.28-0.001847 169.92-0.006546 2.1652-1.84e-4 4.3408 0.07344 6.4937-0.10379 10.427-0.85829 17.038-11.743 12.582-21.181-1.4468-3.0645-4.0246-5.6359-6.2702-8.2754-9.8974-11.633-21.149-22.362-29.477-35.02-10.361-15.748-13.119-33.693-6.3098-52.115 9.5932-25.952 35.138-40.059 61.352-40.15 103.79-0.35908 207.57-0.14522 311.36-0.15508 3.3297-3.17e-4 6.6594-0.12355 9.989-0.18949z" fill="#404040"/>
<path d="m560.93 25.49c-3.384 0.51053-6.7137 0.63377-10.043 0.63409-103.79 0.009859-207.57-0.204-311.36 0.15508-26.214 0.090696-51.759 14.197-61.352 40.15-6.8096 18.422-4.0512 36.367 6.3098 52.115 8.3279 12.657 19.579 23.387 29.477 35.02 2.2456 2.6394 4.8234 5.2109 6.2702 8.2754 4.456 9.438-2.1556 20.322-12.582 21.181-2.1529 0.17723-4.3286 0.10361-6.4937 0.10379-56.641 0.004699-113.28 0.001922-169.92 0.006546-7.0875 5.79e-4 -7.0923 0.016403-7.1172 7.2031-0.058266 16.823-0.11148 33.647-0.21015 50.918-10.743 0.93933-10.743 0.93933-10.743-9.6989-9e-6 -17.159-0.00214-34.318 0.001047-51.478 0.001305-7.0333 0.006535-7.054 6.7992-7.0553 58.808-0.0112 117.62-0.044799 176.42 0.025788 6.0915 0.007309 11.325-1.0277 13.844-7.3709 2.4879-6.265-0.51064-10.709-4.6898-15.081-8.5076-8.9007-17.45-17.518-24.933-27.237-14.635-19.009-21.599-40.328-13.137-64.03 8.4503-23.669 26.526-36.756 50.463-42.198 5.6237-1.2786 11.523-1.8779 17.297-1.8838 105.29-0.10901 210.58-0.07875 315.86-0.080793 11.444-2.22e-4 9.8321-0.66978 9.837 10.327z" fill="#030303"/>
<path d="m384.99 80.43c6.8856 0.34107 11.25 4.5995 11.887 11.347 0.12485 1.3231 0.083282 2.6639 0.08258 3.9965-0.026031 48.327-0.056335 96.653-0.094299 145.43-10.402 1.1634-10.402 1.1634-10.402-8.8517-6.41e-4 -47.759 0.021484-95.517-0.060273-143.28-0.004699-2.743-0.8555-5.4846-1.413-8.6412z" fill="#0A0A0A"/>
<path d="m195.46 396.05c-0.79083-1.0864-1.5817-2.1729-3.0559-4.1981-1.1257 2.765-1.9007 4.3398-2.4207 5.9946-10.358 32.967-20.781 65.914-30.912 98.951-1.3903 4.5338-3.5126 5.8022-8.0657 5.7362-17.635-0.25568-35.275-0.09784-53.408-0.61313-21.344-67.936-42.195-135.35-63.037-202.77-1.2591-4.0728-2.4553-8.165-3.9638-13.191h70.779c6.8766 22.975 13.736 45.955 20.661 68.915 0.55492 1.8398 1.5606 3.5437 2.797 5.7333 0.96475 2.1643 1.0516 4.2724 2.1249 5.5549 1.3416 1.6031 3.4537 3.3887 5.3101 3.4769 1.5392 0.07315 3.6186-1.9152 4.6752-3.5096 1.1443-1.7267 1.4191-4.0441 2.0073-6.1224 6.4742-22.873 13.015-45.727 19.326-68.645 1.1207-4.07 2.9944-5.4825 7.284-5.4514 25.117 0.18192 50.236 0.058319 75.355 0.037811 6.9891 22.506 13.962 45.017 20.992 67.509 0.73202 2.3421 1.8041 4.578 3.0034 7.518 1.6521 4.077 1.7563 8.7965 6.8831 8.8508 5.3193 0.056305 5.8174-4.5961 7.0669-8.3271 0.10522-0.31424 0.13815-0.65204 0.23254-0.97064 6.9481-23.45 13.962-46.881 20.775-70.37 0.9166-3.1603 2.3837-4.3189 5.5785-4.1965 4.9872 0.19116 9.9875 0.012604 14.982 0.054718 13.972 0.11786 27.944 0.26856 41.916 0.40625-4.2729 14.5-8.4443 29.031-12.837 43.495-16.815 55.37-33.78 110.69-50.433 166.11-1.5427 5.1338-3.8158 6.6198-8.9954 6.526-17.645-0.31976-35.3-0.11859-53.441-0.63287-0.56833-1.0096-0.58958-1.52-0.73352-1.9931-10.116-33.251-20.213-66.508-30.397-99.738-1.6512-5.3883-3.9032-6.1846-10.048-4.143z" fill="#404040"/>
<path d="m101.33 285.56c-23.22 0.4017-46.484 0.4017-70.734 0.4017 1.5085 5.0263 2.7047 9.1185 3.9638 13.191 20.843 67.419 41.694 134.83 62.593 202.66-0.4393 0.49146-0.92919 0.65613-1.4178 0.65237-9.3058-0.071258-7.1403 1.0517-9.6747-7.1154-21.946-70.724-43.797-141.48-65.664-212.23-0.62286-2.0152-1.1022-4.0749-1.7991-6.6756h80.135c0.80164 2.736 1.6773 5.7248 2.5975 9.1152z" fill="#030303"/>
<path d="m240.93 285.57c-25.129 0.39948-50.248 0.52307-75.365 0.34116-4.2897-0.031067-6.1633 1.3814-7.284 5.4514-6.3107 22.918-12.852 45.772-19.326 68.645-0.58829 2.0784-0.86308 4.3958-2.0073 6.1224-1.0566 1.5943-3.136 3.5827-4.6752 3.5096-1.8564-0.088226-3.9685-1.8738-5.3101-3.4769-1.0733-1.2825-1.1601-3.3907-1.7443-5.4817 0.89133-2.1397 2.1947-3.8294 2.7396-5.7358 7.1184-24.905 14.127-49.842 21.175-74.767 0.35793-1.2658 0.8252-2.5006 1.3792-4.1629 1.7867 0 3.5898 2.44e-4 5.3929-3.1e-5 25.306-0.003936 50.614 0.17545 75.916-0.16248 5.2353-0.069916 7.6774 1.4959 8.2595 6.4833 0.11345 0.97211 0.56514 1.9047 0.85022 3.2345z" fill="#020202"/>
<path d="m362.6 286.14c-14.224 0.14343-28.196-0.007263-42.168-0.12512-4.9942-0.042114-9.9945 0.13644-14.982-0.054718-3.1948-0.12244-4.6619 1.0362-5.5785 4.1965-6.8127 23.489-13.827 46.92-20.775 70.37-0.094391 0.3186-0.12732 0.6564-0.23254 0.97064-1.2495 3.7309-1.7476 8.3834-7.0669 8.3271-5.1268-0.054291-5.231-4.7738-6.6922-8.5573 0.95093-1.9225 2.4552-3.3456 2.972-5.0655 7.6372-25.412 15.18-50.853 22.623-76.323 0.73709-2.5224 1.4144-3.9723 4.5171-3.9525 22.125 0.14108 44.25 0.074432 66.376 0.108 1.1001 0.001678 2.1997 0.32083 4.0371 0.60702-0.99893 3.3143-1.8885 6.2657-3.0305 9.4983z" fill="#020202"/>
<path d="m195.52 396.46c6.0883-2.4475 8.3403-1.6512 9.9915 3.7371 10.183 33.23 20.28 66.487 30.397 99.738 0.14394 0.47311 0.16519 0.98352 0.28845 1.894-1.6152 0.50043-3.2901 0.4714-4.9316 0.69128-2.8686 0.38431-4.0839-0.96103-4.8793-3.6105-10.217-34.031-20.524-68.034-30.866-102.45z" fill="#050505"/>
<path d="m1075.1 67.528c0.82617 8.3719 2.6562 16.79 2.2769 25.107-0.88574 19.411-11.15 34.215-25.85 47.023-6.9415 4.0838-13.2 8.2022-19.919 11.332-4.5721 2.13-6.2723 4.349-3.5947 9.3075 1.7173 4.052 2.7159 8.3298 5.2797 11.219 7.6362 8.6047 17.802 11.646 29.13 11.624 34.576-0.067947 69.152-0.021072 103.84 0.43102 0.12817 6.4494 0.20422 12.449 0.15064 18.448-0.11621 12.989-0.29871 25.978-0.45398 38.967-1.9504 0.28362-3.9008 0.81259-5.8514 0.81479-42.314 0.047455-84.63 0.25891-126.94-0.06636-18.591-0.14293-35.031-5.8795-48.411-19.936-18.37-19.299-37.509-37.867-56.35-56.717-1.3035-1.3041-2.863-2.3524-5.2506-4.2871-0.14575 3.2096-0.30682 5.1223-0.30817 7.035-0.015564 22.49 0.002502 44.98-0.011658 67.47-0.003845 6.1293-0.41956 6.5345-6.5523 6.5381-20.824 0.012268-41.648 0.004242-62.9-0.5112-0.37225-3.0109-0.26733-5.5066-0.26697-8.0023 0.008789-66.947 0.041748-133.89-0.070435-200.84-0.007568-4.536 0.95502-6.4705 6.0258-6.4534 49.793 0.16723 99.59-0.23169 149.38 0.27079 18.628 0.188 35.886 6.3717 49.57 19.414 6.615 6.3046 11.444 14.483 17.082 21.813m-151.01 48.421c0.1676 7.2449 2.3716 9.9063 8.8184 9.939 18.988 0.096298 37.979 0.19265 56.966-0.001205 11.303-0.1154 21.75-7.8481 25.287-18.064 4.0269-11.629 0.91345-23.781-8.2434-31.209-1.2516-1.0153-3.293-1.0569-5.5753-1.8462-5.3354-5.7083-12.064-7.9437-19.707-7.9404-17.776 0.007675-35.552 0.085831-53.326-0.064362-3.9748-0.033577-5.6393 1.0536-5.5621 5.3322 0.2276 12.622 0.035095 25.25 0.138 37.875 0.014099 1.7248 0.77362 3.4436 1.2042 5.9789z" fill="#404040"/>
<path d="m1075.2 67.104c-5.7029-6.9061-10.532-15.084-17.147-21.389-13.684-13.042-30.943-19.226-49.57-19.414-49.789-0.50248-99.586-0.10356-149.38-0.27079-5.0707-0.017033-6.0333 1.9174-6.0258 6.4534 0.11218 66.946 0.079224 133.89 0.070435 200.84-3.67e-4 2.4957-0.10529 4.9914-0.20569 7.9355-1.2082 0.49803-2.3763 0.50003-3.5351 0.60591-4.0301 0.36826-5.4848-1.2084-5.4642-5.4568 0.16052-32.997 0.087829-65.994 0.086486-98.992-0.001586-38.664 0.072998-77.328-0.10394-115.99-0.021851-4.775 1.2927-6.3752 6.1754-6.3611 50.829 0.14669 101.66-0.31095 152.49 0.24907 30.958 0.34113 62.037 18.554 71.976 48.467 0.31238 0.94016 0.47144 1.9312 0.63684 3.3224z" fill="#030303"/>
<path d="m1166.2 183.12c-34.576-0.002182-69.152-0.049057-103.73 0.01889-11.328 0.022263-21.493-3.019-29.13-11.624-2.5637-2.8889-3.5624-7.1668-4.9756-11.069 5.8472 6.5475 12.701 11.012 21.677 11.678 0.39282 0.17304 0.78577 0.34607 1.8998 0.62456 35.637 0.15207 70.554 0.20261 105.47 0.24283 9.8193 0.011307 9.8263 0.005447 8.7861 10.129z" fill="#010101"/>
<path d="m1166.3 183.57c0.9292-10.574 0.92224-10.568-8.8971-10.579-34.916-0.040222-69.833-0.090759-105.14-0.27904 1.4292-0.99643 3.251-2.5891 5.0795-2.5968 35.301-0.14835 70.603-0.075515 105.9-0.16072 4.0575-0.009796 5.7948 1.6355 5.7893 5.5983-0.028443 20.482 0.03125 40.963-0.10315 61.444-0.008667 1.299-1.3989 2.5889-2.5391 3.9359-0.2373-12.936-0.05481-25.925 0.061401-38.914 0.053589-5.9989-0.022461-11.999-0.15064-18.448z" fill="#B2ACAC"/>
<path d="m1050 171.76c-8.9467-0.30405-15.801-4.769-21.651-11.725-2.9786-4.6989-1.2784-6.918 3.2937-9.0479 6.719-3.1301 12.978-7.2484 19.755-11.032 2.928 0.93083 2.8625 2.3092 0.73438 3.7582-1.6337 1.1123-3.5033 1.8941-5.0732 3.0806-3.9741 3.0036-7.8384 6.1525-12.778 10.059 4.8573 4.2491 8.7487 7.5903 12.558 11.023 1.1604 1.0456 2.0942 2.3425 3.1613 3.8852z" fill="#B2ACAC"/>
<path d="m534.39 468.02c-2.1155-0.29251-4.2305-0.83563-6.3466-0.83966-28.303-0.053956-56.608 0.062713-84.91-0.12833-4.4587-0.03009-6.5327 1.3953-7.7013 5.6808-2.3595 8.6527-5.3167 17.141-7.8408 25.751-0.83313 2.8423-2.2549 4.0302-5.2806 4.005-18.144-0.15122-36.29-0.15906-54.917-0.7691-0.12375-2.173 0.12988-3.8236 0.60864-5.4061 20.619-68.16 41.307-136.3 61.786-204.5 1.3587-4.525 3.3192-5.9272 7.9705-5.9053 36.627 0.17316 73.256 0.073731 109.88 0.058228 9.3179 29.809 18.666 59.608 27.946 89.429 12.493 40.147 24.937 80.309 37.392 120.47 1.9403 6.256 1.7463 6.5546-4.6785 6.5486-18.138-0.016999-36.276-0.082154-54.975-0.63443-3.1245-8.6783-5.9222-16.787-8.1695-25.045-1.5654-5.7524-4.7041-8.8607-10.768-8.7107m-78.327-45.913c-0.12659 6.014 1.5754 7.9583 7.403 7.9772 18.333 0.059387 36.666 0.029785 54.999 0.039612 8.856 0.00473 11.167-2.9763 8.5194-11.429-9.5603-30.517-19.18-61.015-28.823-91.505-1.9724-6.2368-3.5165-7.1021-10.241-6.6452-2.5613-3.4279-3.3332-0.99213-4.0632 1.2755-2.7023 8.3938-5.3665 16.8-8.0512 25.199-7.1942 22.508-14.419 45.007-21.55 67.535-0.78839 2.4909-2.7187 5.6223 1.8056 7.5524z" fill="#404040"/>
<path d="m547.6 285.56c-36.589 0.4245-73.217 0.52393-109.84 0.35077-4.6513-0.021942-6.6118 1.3803-7.9705 5.9053-20.479 68.202-41.167 136.34-61.786 204.5-0.47876 1.5825-0.73239 3.2331-1.0575 5.2514-3.8673 0.39944-7.7682 0.39944-12.429 0.39944 1.6216-5.4824 3.0443-10.383 4.52-15.268 20.608-68.216 41.281-136.41 61.712-204.68 1.4401-4.812 3.5982-6.1316 8.3735-6.1072 35.492 0.18149 70.986 0.055725 106.48 0.12274 9.8639 0.018647 8.6795-1.8752 12.003 9.5257z" fill="#020202"/>
<path d="m534.3 468.44c6.1523-0.56976 9.291 2.5385 10.856 8.291 2.2473 8.2581 5.045 16.366 7.7199 24.895-6.418 2.7964-8.0418 2.0516-9.9579-4.2369-2.8981-9.5112-5.8044-19.02-8.6184-28.95z" fill="#050505"/>
<path d="m727.02 208c-2.0298-0.52493-4.0579-1.4998-6.0896-1.5071-28.637-0.10301-57.274-0.005997-85.91-0.15833-3.8891-0.020675-5.5948 1.4033-6.6274 5.007-2.4722 8.6291-5.4052 17.126-7.925 25.742-0.97461 3.3326-2.4521 4.889-6.2376 4.8457-18.145-0.20772-36.294-0.12002-54.833-0.57382 1.2514-5.6794 2.9366-10.91 4.5313-16.167 19.578-64.547 39.176-129.09 58.632-193.67 1.2006-3.9852 2.8499-5.5233 7.2215-5.4984 34.663 0.19714 69.327 0.13933 103.99 0.057083 2.1951-0.005207 4.3881-0.87074 6.5822-1.336 10.27 32.974 20.547 65.945 30.808 98.922 11.552 37.129 23.096 74.26 34.629 111.39 1.9823 6.3829 1.6888 6.7677-5.0449 6.7803-18.634 0.034973-37.268 0.046341-56.323-0.39061-2.6148-8.0877-5.085-15.652-6.9128-23.369-1.3893-5.8655-4.2717-9.5453-10.491-10.077m-77.702-46.294c-0.061523 6.1998 2.1642 9.1014 7.8674 9.1478 18.322 0.14886 36.646 0.16676 54.967 0.001785 6.1678-0.055542 8.9634-4.1816 7.1496-10.12-9.5284-31.198-19.162-62.364-28.697-93.56-1.44-4.7113-4.1746-7.0452-9.6218-6.6697-0.71875-0.81559-1.4375-1.6312-2.1563-2.4468-0.80835 1.1261-1.9856 2.139-2.3712 3.3949-9.5437 31.09-19.052 62.192-28.354 93.355-0.53485 1.7919 0.73334 4.1219 1.2157 6.8969z" fill="#404040"/>
<path d="m740.27 24.362c-2.111 0.84177-4.304 1.7073-6.4991 1.7125-34.664 0.082247-69.328 0.14006-103.99-0.057083-4.3716-0.024864-6.0209 1.5132-7.2215 5.4984-19.456 64.584-39.054 129.12-58.632 193.67-1.5947 5.2576-3.2799 10.488-5.0028 16.082-14.884 1.1662-11.843 0.16631-8.7607-10.058 21.182-70.253 42.512-140.46 63.629-210.73 1.2536-4.1717 3.1845-5.4027 7.3583-5.387 35.959 0.13544 71.918 0.072835 107.88 0.069864 8.7957-7.27e-4 8.7957 2.11e-4 11.243 9.2015z" fill="#040404"/>
<path d="m727 208.4c6.2372 0.13113 9.1197 3.811 10.509 9.6765 1.8278 7.7168 4.298 15.281 6.4413 23.309-5.0469 1.467-7.496-0.55803-8.7996-5.5478-2.3779-9.1026-5.4099-18.034-8.1507-27.438z" fill="#050505"/>



<path d="m735.06 376.11c-0.68768-1.5437-1.9535-3.0805-1.972-4.6322-0.15704-13.121-0.021606-26.245-0.13098-39.367-0.026307-3.1538 1.1254-4.6718 4.287-4.6565 18.932 0.09143 37.876-0.1626 56.789 0.48593 4.8187 0.16522 9.5395 3.1814 14.868 5.0791 0.72925 0.17334 0.89587 0.15521 1.0624 0.13708 0 0-0.017701-0.070037 0.01715 0.2749 8.3326 8.4419 10.275 18.217 5.9415 28.602-4.3096 10.327-13.037 14.173-24.08 14.042-18.925-0.22436-37.855-6.41e-4 -56.782 0.034973m24.434-9.0965c11.813-0.004791 23.625 0.010102 35.438-0.022674 5.9698-0.016571 10.843-3.3567 13.095-8.8623 4.4158-10.794-3.0639-21.603-15.903-21.968-15.46-0.44019-30.944-0.16229-46.414 0.033783-1.2435 0.015747-3.5044 1.7737-3.5341 2.7742-0.2746 9.2443-0.16205 18.5-0.16205 28.118 5.9278 0 11.205 0 17.48-0.07309z" fill="#B1B0B0"/>
<path d="m735 376.51c18.982-0.43894 37.912-0.66266 56.836-0.43829 11.043 0.13089 19.771-3.7153 24.08-14.042 4.3338-10.385 2.3911-20.16-5.9759-28.591 2.7097 0.90924 5.9248 1.6234 8.1898 3.4902 8.4101 6.9321 11.442 20.03 7.5356 30.584-3.9873 10.772-13.739 17.576-25.337 17.591-18.966 0.024963-37.931 0.025238-56.897-0.003693-6.5402-0.009949-8.1274-1.5972-8.4324-8.5903z" fill="#020202"/>
<path d="m809.91 332.97c-0.11761 0.20282-0.28424 0.22095-0.6731 0.1217 0.059875-0.18036 0.34198-0.24335 0.6731-0.1217z" fill="#020202"/>
<path d="m924.07 115.14c-0.41443-1.7216-1.174-3.4404-1.188-5.1652-0.1029-12.625 0.0896-25.254-0.138-37.875-0.07721-4.2786 1.5873-5.3657 5.5621-5.3322 17.774 0.15019 35.551 0.072037 53.326 0.064362 7.6424-0.003304 14.371 2.2322 20.177 8.3904 6.9556 8.9322 7.7953 18.249 3.1207 27.538-4.4078 8.7587-12.225 12.529-22.088 12.455-19.59-0.14612-39.182-0.063621-58.772-0.075599m21.439-39.495c-3.3253 0.008278-6.6532 0.1036-9.9749-0.00174-2.8372-0.089989-4.468 0.97408-4.4717 3.9553-0.009521 7.6474-0.16949 15.302 0.15753 22.935 0.055908 1.3057 2.2084 3.6032 3.4111 3.6155 17.284 0.17736 34.585 0.43764 51.851-0.1862 8.6534-0.31266 14.267-9.7436 11.989-18.184-2.1624-8.0126-7.6317-12.015-17.052-12.108-11.637-0.11523-23.277-0.026756-35.911-0.026191z" fill="#B1ACAC"/>
<path d="m924.08 115.54c19.583-0.39484 39.174-0.47735 58.764-0.33122 9.863 0.073571 17.68-3.6962 22.088-12.455 4.6746-9.289 3.8349-18.606-2.8174-27.39 1.5082 0.19088 3.5496 0.23247 4.8012 1.2478 9.1569 7.4281 12.27 19.58 8.2434 31.209-3.5373 10.216-13.984 17.948-25.287 18.064-18.987 0.19386-37.977 0.097503-56.966 0.001205-6.4468-0.032684-8.6508-2.6941-8.8265-10.346z" fill="#050505"/>
<path d="m456.14 421.32c-4.5969-1.1368-2.6666-4.2682-1.8782-6.7591 7.1307-22.528 14.355-45.027 21.55-67.535 2.6847-8.3994 5.3489-16.805 8.0512-25.199 0.73001-2.2676 1.5019-4.7034 4.2974-0.60758 9.7943 31.446 19.363 62.222 28.907 93.005 1.9915 6.4232 1.5964 6.9347-4.9603 6.9522-18.656 0.049927-37.311 0.096405-55.967 0.1442m43.05-35.092c-4.1305-13.15-8.261-26.3-12.391-39.45-0.45306 0.057678-0.9061 0.11539-1.3592 0.17306-6.7714 20.399-13.585 40.785-20.268 61.213-0.9819 3.0012 0.71219 4.1468 3.7115 4.1303 11.309-0.061951 22.618-0.013367 33.927 0.024384 3.4062 0.011383 4.3291-1.4034 3.2488-4.6674-2.2731-6.8677-4.3307-13.807-6.8687-21.424z" fill="#B0ADAD"/>
<path d="m456.1 421.71c18.692-0.44446 37.348-0.49094 56.003-0.54086 6.5566-0.017548 6.9517-0.52896 4.9603-6.9522-9.5442-30.783-19.113-61.559-28.68-92.698 6.2627-1.4319 7.8069-0.56656 9.7793 5.6703 9.6427 30.491 19.263 60.989 28.823 91.505 2.648 8.4525 0.33655 11.434-8.5194 11.429-18.333-0.009827-36.666 0.019775-54.999-0.039612-5.8275-0.018891-7.5295-1.9632-7.3666-8.3739z" fill="#030303"/>
<path d="m649.26 161.01c-0.42902-2.0796-1.6972-4.4096-1.1624-6.2015 9.3018-31.163 18.81-62.265 28.354-93.355 0.38556-1.2559 1.5628-2.2688 2.3712-3.3949 0.71881 0.81558 1.4376 1.6312 2.3459 3.1354 9.5398 31.297 18.89 61.906 28.241 92.515 1.8229 5.9667 1.2945 6.7527-4.8309 6.7723-10.646 0.034088-21.293-0.053376-31.938 0.032989-7.7942 0.063233-15.587 0.32327-23.38 0.49561m22.709-55.485c-4.448 13.187-8.8773 26.38-13.354 39.556-1.5311 4.506-0.51868 6.9348 3.8184 7.0004 11.13 0.16837 22.269-4.27e-4 33.398-0.26576 2.722-0.064896 4.23-1.8593 3.323-4.8247-3.1503-10.299-6.3994-20.568-9.4673-30.892-2.7551-9.2709-5.2703-18.613-8.04-27.88-0.31812-1.0643-1.5914-1.8431-2.4219-2.7543-1.0165 1.3197-2.4999 2.4941-2.9644 3.9857-1.5679 5.0351-2.7741 10.183-4.2916 16.074z" fill="#B1AEAE"/>
<path d="m649.29 161.36c7.7666-0.51999 15.559-0.78003 23.353-0.84326 10.645-0.086365 21.292 0.001099 31.938-0.032989 6.1254-0.019608 6.6538-0.80556 4.8309-6.7723-9.351-30.609-18.701-61.218-28.045-92.19 5.0617-1.3894 7.7963 0.94448 9.2363 5.6558 9.5347 31.196 19.168 62.362 28.697 93.56 1.8138 5.9385-0.98181 10.065-7.1496 10.12-18.321 0.16498-36.646 0.14708-54.967-0.001785-5.7032-0.046356-7.929-2.948-7.8941-9.4955z" fill="#040404"/>
<path d="m1119.7 488.09c3.1212 0.28375 5.9528 0.39004 8.5795 1.1789 3.6823 1.1059 5.015 4.9994 2.1141 7.1624-4.2742 3.187-2.7336 5.4828 0.16895 8.4359-0.4248 0.62656-1.6101 1.563-1.7334 1.4395-1.3788-1.3818-2.4886-3.036-3.8916-4.3879-0.86524-0.8338-2.1101-1.2738-3.1844-1.8906-0.51794 1.0728-1.1584 2.106-1.5222 3.2288-0.44092 1.3614-0.64832 2.7986-1.1478 5.0733-3.1818-5.4526-2.6418-17.577 0.61694-20.24m2.2307 8.7565c2.2019-0.40772 4.4037-0.81543 6.6056-1.2231 0.051147-0.82889 0.1023-1.6578 0.15332-2.4867-2.4072-0.5524-4.8145-1.1048-7.2216-1.6573-0.10644 1.7106-0.21289 3.4212 0.46265 5.3671z" fill="#B1A7A7"/></svg>
